<svg width="522" height="256" viewBox="0 0 522 256" fill="none" xmlns="http://www.w3.org/2000/svg">
<rect width="522" height="256" fill="white"/>
<path fill-rule="evenodd" clip-rule="evenodd" d="M185.04 96.066C184.411 95.8494 183.726 96.1834 183.509 96.8121C183.292 97.4408 183.626 98.126 184.255 98.3426L189.031 99.988C189.66 100.205 190.345 99.8705 190.561 99.2419C190.778 98.6132 190.444 97.928 189.815 97.7114L185.04 96.066ZM179.472 101.381C179.514 102.045 179.011 102.617 178.347 102.659L173.29 102.98C172.627 103.022 172.055 102.519 172.012 101.855C171.97 101.191 172.474 100.619 173.138 100.577L178.194 100.256C178.858 100.214 179.43 100.718 179.472 101.381ZM169.439 109.245C170.037 108.954 170.286 108.234 169.995 107.636C169.704 107.038 168.983 106.789 168.385 107.08L163.85 109.287C163.253 109.578 163.004 110.299 163.295 110.897C163.586 111.495 164.306 111.743 164.904 111.452L169.439 109.245ZM183.267 119.194C184.262 118.705 184.672 117.503 184.183 116.508C183.695 115.513 182.492 115.103 181.498 115.592L176.923 117.839C175.928 118.328 175.518 119.53 176.006 120.525C176.495 121.519 177.697 121.93 178.692 121.441L183.267 119.194ZM196.064 96.5355C196.501 96.0347 197.262 95.9835 197.763 96.421L201.575 99.7519C202.076 100.189 202.127 100.95 201.69 101.451C201.252 101.951 200.492 102.003 199.991 101.565L196.179 98.2343C195.678 97.7968 195.627 97.0362 196.064 96.5355ZM209.366 101.557C209.066 100.963 208.342 100.725 207.749 101.024C207.155 101.324 206.916 102.048 207.216 102.642L209.503 107.176C209.803 107.77 210.527 108.009 211.121 107.709C211.714 107.41 211.953 106.686 211.653 106.092L209.366 101.557ZM216.872 109.648C217.535 109.601 218.111 110.1 218.158 110.764L218.519 115.82C218.567 116.483 218.068 117.059 217.404 117.107C216.741 117.154 216.165 116.655 216.118 115.992L215.756 110.935C215.709 110.272 216.208 109.696 216.872 109.648ZM222.797 122.618C223.003 121.986 222.657 121.306 222.025 121.101C221.392 120.895 220.713 121.241 220.507 121.874L218.942 126.69C218.737 127.322 219.083 128.001 219.715 128.207C220.348 128.412 221.027 128.066 221.232 127.434L222.797 122.618ZM222.433 133.649C222.939 134.081 222.999 134.841 222.567 135.346L219.276 139.199C218.844 139.705 218.084 139.764 217.579 139.332C217.073 138.901 217.013 138.141 217.445 137.635L220.736 133.782C221.168 133.277 221.928 133.217 222.433 133.649ZM217.531 147.041C218.125 146.741 218.363 146.017 218.064 145.424C217.764 144.83 217.04 144.592 216.447 144.891L211.912 147.179C211.318 147.478 211.08 148.202 211.379 148.796C211.679 149.389 212.403 149.628 212.996 149.328L217.531 147.041ZM209.527 154.61C209.585 155.272 209.094 155.856 208.432 155.914L203.375 156.355C202.713 156.413 202.129 155.923 202.071 155.26C202.013 154.598 202.504 154.014 203.166 153.956L208.223 153.515C208.885 153.457 209.469 153.947 209.527 154.61ZM192.518 156.857C191.884 156.658 191.208 157.011 191.009 157.645C190.809 158.28 191.162 158.955 191.797 159.155L196.653 160.68C197.287 160.879 197.963 160.526 198.162 159.892C198.361 159.257 198.008 158.582 197.374 158.382L192.518 156.857ZM179.873 155.628C180.299 155.117 181.059 155.049 181.569 155.475L185.462 158.726C185.972 159.152 186.04 159.911 185.614 160.422C185.188 160.932 184.429 161 183.918 160.574L180.026 157.323C179.515 156.897 179.447 156.138 179.873 155.628ZM171.946 150.055C171.636 149.467 170.908 149.241 170.32 149.551C169.731 149.861 169.506 150.589 169.815 151.177L172.183 155.672C172.493 156.26 173.221 156.486 173.81 156.176C174.398 155.866 174.624 155.138 174.314 154.55L171.946 150.055ZM163.787 140.272C164.448 140.209 165.036 140.695 165.099 141.357L165.581 146.413C165.644 147.075 165.158 147.663 164.496 147.726C163.834 147.789 163.247 147.304 163.184 146.642L162.702 141.585C162.639 140.923 163.125 140.335 163.787 140.272ZM162.087 130.743C162.281 130.107 161.923 129.434 161.288 129.24C160.652 129.045 159.979 129.403 159.784 130.039L158.299 134.895C158.105 135.531 158.463 136.204 159.099 136.398C159.734 136.593 160.408 136.235 160.602 135.599L162.087 130.743ZM163.176 118.062C163.691 118.482 163.768 119.241 163.347 119.756L160.137 123.689C159.716 124.204 158.958 124.28 158.443 123.86C157.928 123.439 157.851 122.681 158.271 122.166L161.482 118.233C161.902 117.718 162.661 117.641 163.176 118.062ZM176.781 113.818C177.579 113.433 177.914 112.474 177.529 111.675C177.144 110.877 176.184 110.542 175.386 110.927L170.811 113.134C170.012 113.519 169.677 114.479 170.062 115.277C170.448 116.076 171.407 116.411 172.206 116.026L176.781 113.818ZM185.834 107.665C185.841 108.552 185.128 109.276 184.241 109.283L179.144 109.323C178.258 109.33 177.533 108.617 177.526 107.73C177.519 106.844 178.232 106.12 179.119 106.113L184.216 106.072C185.102 106.065 185.827 106.778 185.834 107.665ZM189.682 103.374C188.878 103 187.923 103.349 187.549 104.153C187.176 104.956 187.524 105.911 188.328 106.285L192.903 108.412C193.707 108.786 194.662 108.437 195.036 107.633C195.409 106.829 195.061 105.874 194.257 105.501L189.682 103.374ZM198.106 105.191C198.793 104.63 199.805 104.732 200.365 105.419L203.576 109.352C204.136 110.039 204.034 111.05 203.347 111.611C202.661 112.171 201.649 112.069 201.089 111.382L197.878 107.449C197.317 106.763 197.42 105.751 198.106 105.191ZM209.108 111.871C208.898 111.009 208.029 110.481 207.168 110.691C206.307 110.901 205.779 111.77 205.989 112.631L207.193 117.568C207.403 118.429 208.271 118.957 209.133 118.747C209.994 118.537 210.522 117.668 210.312 116.807L209.108 111.871ZM212.971 119.593C213.839 119.775 214.395 120.626 214.213 121.494L213.169 126.47C212.987 127.338 212.137 127.894 211.269 127.712C210.401 127.53 209.845 126.679 210.027 125.811L211.071 120.835C211.253 119.967 212.103 119.411 212.971 119.593ZM214.682 132.368C215.219 131.663 215.083 130.655 214.378 130.118C213.673 129.58 212.666 129.716 212.129 130.421L209.038 134.474C208.501 135.179 208.637 136.187 209.342 136.724C210.047 137.262 211.054 137.126 211.592 136.421L214.682 132.368ZM211.102 140.209C211.51 140.997 211.202 141.965 210.415 142.373L205.92 144.701C205.133 145.108 204.164 144.801 203.756 144.013C203.348 143.226 203.656 142.258 204.443 141.85L208.938 139.522C209.725 139.114 210.694 139.422 211.102 140.209ZM202.21 149.576C203.096 149.555 203.798 148.819 203.776 147.933C203.755 147.046 203.02 146.345 202.133 146.366L197.077 146.487C196.19 146.508 195.489 147.243 195.51 148.13C195.531 149.016 196.267 149.717 197.153 149.696L202.21 149.576ZM186.295 148.368C186.652 147.557 187.599 147.188 188.411 147.545L193.066 149.592C193.878 149.948 194.247 150.896 193.89 151.707C193.533 152.519 192.586 152.887 191.774 152.531L187.119 150.484C186.307 150.127 185.939 149.18 186.295 148.368ZM180.194 144.728C179.622 144.051 178.609 143.966 177.932 144.538C177.255 145.111 177.17 146.124 177.742 146.801L181.033 150.693C181.606 151.371 182.618 151.455 183.295 150.883C183.973 150.311 184.057 149.298 183.485 148.621L180.194 144.728ZM171.979 137.513C172.835 137.282 173.716 137.788 173.948 138.643L175.272 143.54C175.504 144.395 174.998 145.277 174.142 145.508C173.286 145.74 172.405 145.234 172.173 144.378L170.849 139.482C170.617 138.626 171.123 137.745 171.979 137.513ZM170.957 130.498C171.126 129.627 170.557 128.785 169.686 128.617C168.816 128.448 167.974 129.017 167.805 129.888L166.842 134.864C166.674 135.734 167.243 136.577 168.113 136.745C168.984 136.914 169.826 136.344 169.994 135.474L170.957 130.498ZM171.413 119.586C172.129 120.11 172.284 121.115 171.76 121.83L168.79 125.883C168.266 126.598 167.261 126.753 166.546 126.229C165.831 125.705 165.676 124.701 166.2 123.986L169.17 119.932C169.694 119.217 170.698 119.062 171.413 119.586ZM186.498 111.473C185.424 111.2 184.332 111.849 184.059 112.923C183.786 113.998 184.436 115.089 185.51 115.362L190.406 116.607C191.48 116.879 192.572 116.23 192.845 115.156C193.118 114.082 192.468 112.99 191.394 112.717L186.498 111.473ZM195.056 112.315C195.953 111.664 197.208 111.864 197.858 112.761L200.828 116.855C201.479 117.752 201.279 119.006 200.382 119.657C199.485 120.308 198.231 120.108 197.58 119.211L194.61 115.118C193.959 114.221 194.159 112.966 195.056 112.315ZM205.743 121.067C205.822 119.962 204.99 119.002 203.885 118.923C202.779 118.844 201.819 119.676 201.74 120.781L201.379 125.838C201.3 126.943 202.132 127.903 203.238 127.982C204.343 128.061 205.303 127.229 205.382 126.124L205.743 121.067ZM206.414 129.635C207.21 130.406 207.232 131.676 206.461 132.473L202.93 136.125C202.159 136.921 200.889 136.942 200.092 136.172C199.296 135.402 199.274 134.131 200.045 133.335L203.576 129.683C204.347 128.886 205.617 128.865 206.414 129.635ZM199.65 141.699C200.752 141.585 201.554 140.599 201.44 139.497C201.326 138.394 200.34 137.593 199.238 137.707L194.181 138.228C193.079 138.342 192.278 139.328 192.391 140.43C192.505 141.533 193.491 142.334 194.593 142.22L199.65 141.699ZM183.775 138.744C184.396 137.826 185.643 137.585 186.561 138.205L190.775 141.055C191.693 141.676 191.934 142.923 191.313 143.841C190.693 144.759 189.445 145 188.527 144.379L184.313 141.53C183.395 140.909 183.154 139.662 183.775 138.744ZM180.746 133.301C180.446 132.235 179.338 131.613 178.271 131.913C177.204 132.212 176.582 133.32 176.882 134.387L178.247 139.243C178.546 140.31 179.654 140.932 180.721 140.632C181.788 140.332 182.41 139.224 182.11 138.157L180.746 133.301ZM178.434 123.148C179.444 123.604 179.892 124.793 179.436 125.803L177.349 130.418C176.892 131.428 175.704 131.876 174.694 131.42C173.684 130.963 173.236 129.774 173.692 128.764L175.779 124.149C176.236 123.139 177.424 122.691 178.434 123.148ZM259.063 111.746H242.551V143.426H246.631V129.386H258.223V125.69H246.631V115.466H259.063V111.746ZM267.4 137.666C266.904 136.69 266.648 135.61 266.632 134.426H282.208C282.224 134.298 282.24 134.074 282.256 133.754C282.272 133.418 282.28 133.186 282.28 133.058C282.28 131.01 281.88 129.25 281.08 127.778C280.296 126.306 279.184 125.17 277.744 124.37C276.32 123.554 274.64 123.146 272.704 123.146C270.592 123.146 268.784 123.594 267.28 124.49C265.792 125.386 264.656 126.61 263.872 128.162C263.088 129.698 262.696 131.426 262.696 133.346C262.696 135.426 263.112 137.274 263.944 138.89C264.776 140.49 265.96 141.746 267.496 142.658C269.048 143.554 270.88 144.002 272.992 144.002C274.56 144.002 275.888 143.842 276.976 143.522C278.064 143.218 278.984 142.778 279.736 142.202C280.504 141.626 281.152 140.954 281.68 140.186L279.64 137.666C279.4 138.066 279.008 138.522 278.464 139.034C277.92 139.53 277.216 139.962 276.352 140.33C275.504 140.682 274.472 140.858 273.256 140.858C271.816 140.858 270.6 140.57 269.608 139.994C268.632 139.418 267.896 138.642 267.4 137.666ZM277.72 129.122C278.088 129.906 278.28 130.626 278.296 131.282H266.776C266.84 130.578 267.072 129.842 267.472 129.074C267.872 128.29 268.496 127.626 269.344 127.082C270.208 126.538 271.344 126.266 272.752 126.266C274.112 126.266 275.192 126.546 275.992 127.106C276.792 127.666 277.368 128.338 277.72 129.122ZM291.955 143.426H287.803V123.722H291.955V126.751C292.1 126.411 292.356 126.017 292.723 125.57C293.235 124.946 293.939 124.386 294.835 123.89C295.731 123.394 296.803 123.146 298.051 123.146C298.963 123.146 299.763 123.274 300.451 123.53C301.155 123.77 301.651 124.01 301.939 124.25L300.235 127.706C300.011 127.482 299.619 127.258 299.059 127.034C298.499 126.794 297.803 126.674 296.971 126.674C295.915 126.674 295.011 127.002 294.259 127.658C293.507 128.314 292.931 129.106 292.531 130.034C292.147 130.946 291.955 131.794 291.955 132.578V143.426ZM308.554 137.666C308.058 136.69 307.802 135.61 307.786 134.426H323.362C323.378 134.298 323.394 134.074 323.41 133.754C323.426 133.418 323.434 133.186 323.434 133.058C323.434 131.01 323.034 129.25 322.234 127.778C321.45 126.306 320.338 125.17 318.898 124.37C317.474 123.554 315.794 123.146 313.858 123.146C311.746 123.146 309.938 123.594 308.434 124.49C306.946 125.386 305.81 126.61 305.026 128.162C304.242 129.698 303.85 131.426 303.85 133.346C303.85 135.426 304.266 137.274 305.098 138.89C305.93 140.49 307.114 141.746 308.65 142.658C310.202 143.554 312.034 144.002 314.146 144.002C315.714 144.002 317.042 143.842 318.13 143.522C319.218 143.218 320.138 142.778 320.89 142.202C321.658 141.626 322.306 140.954 322.834 140.186L320.794 137.666C320.554 138.066 320.162 138.522 319.618 139.034C319.074 139.53 318.37 139.962 317.506 140.33C316.658 140.682 315.626 140.858 314.41 140.858C312.97 140.858 311.754 140.57 310.762 139.994C309.786 139.418 309.05 138.642 308.554 137.666ZM318.874 129.122C319.242 129.906 319.434 130.626 319.45 131.282H307.93C307.994 130.578 308.226 129.842 308.626 129.074C309.026 128.29 309.65 127.626 310.498 127.082C311.362 126.538 312.498 126.266 313.906 126.266C315.266 126.266 316.346 126.546 317.146 127.106C317.946 127.666 318.522 128.338 318.874 129.122ZM338.725 111.746H342.997L354.709 143.426H350.317L347.581 135.794H334.141L331.357 143.426H326.965L338.725 111.746ZM335.461 132.098H346.285L340.909 116.786H340.837L335.461 132.098ZM363.542 111.746H359.414V143.426H363.542V111.746Z" fill="black"/>
</svg>
